<svg xmlns="http://www.w3.org/2000/svg" version="1.1" xmlns:xlink="http://www.w3.org/1999/xlink" xmlns:svgjs="http://svgjs.dev/svgjs" width="1500" height="1500" viewBox="0 0 1500 1500"><g transform="matrix(1,0,0,1,-1.5536031649421602,-2.418237931573799)"><svg viewBox="0 0 248 248" data-background-color="#ffffff" preserveAspectRatio="xMidYMid meet" height="1500" width="1500" xmlns="http://www.w3.org/2000/svg" xmlns:xlink="http://www.w3.org/1999/xlink"><g id="tight-bounds" transform="matrix(1,0,0,1,0.25686238993711186,0.40002634420793015)"><svg viewBox="0 0 247.4862752201258 247.2" height="247.2" width="247.4862752201258"><g><svg viewBox="0 0 247.4862752201258 247.2" height="247.2" width="247.4862752201258"><g><svg viewBox="0 0 247.4862752201258 247.2" height="247.2" width="247.4862752201258"><g id="textblocktransform"><svg viewBox="0 0 247.4862752201258 247.2" height="247.2" width="247.4862752201258" id="textblock"><g><svg viewBox="0 0 247.4862752201258 247.2" height="247.2" width="247.4862752201258"><path d="M246.907 53.02C245.743 27.36 242.427 20.227 242.427 20.227 232.247-6.202 219.542-0.506 208.128 3.292 187.976 3.446 167.906 9.091 147.801 12.119 105.601 12.581 63.041 4.986 21.051 23.717 17.107 29.464-4.092 24.846 0.702 56.304 1.958 69.39 6.542 83.913 6.403 95.922 7.031 98.026 7.904 93.202 8.276 96.23 9.579 104.39 11.708 100.541 13.453 105.365 11.022 118.246 12.767 128.971 14.431 140.21 11.499 143.135 7.741 141.749 6.054 151.449 5.879 158.479 4.937 157.145 3.901 156.837 3.145 156.632 1.621 157.402 1.877 159.608 2.749 167.152-0.997 171.514 1.353 178.904-0.264 186.91 2.47 193.838 2.098 202.511 2.051 204.255 2.307 205.744 2.714 206.154 4.518 208.361 1.888 212.672 2.168 217.342 20.667 249.262 40.737 227.195 59.69 241.872 64.612 231.608 60.912 245.516 62.878 243.36 64.414 240.846 65.531 251.263 67.265 245.362 67.532 243.668 67.125 239.665 68.079 240.435 68.579 240.846 69.021 240.743 69.091 238.382 69.196 234.841 68.277 237.048 68.033 235.201 70.674 225.861 70.022 248.081 72.5 247.158 72.384 244.438 71.663 240.538 73.14 241.051 74.606 237.151 74.653 233.918 75.956 242.693 76.002 244.592 76.235 245.926 76.607 246.85 80.68 237.305 84.729 250.237 88.999 245.926 91.616 241.205 94.13 248.492 96.782 246.696 97.713 245.259 98.655 242.693 99.551 247.004 110.523 247.928 122.216 244.079 132.618 247.158 160.413 241.41 190.117 249.518 219.425 241.923 226.336 238.998 233.515 234.841 240.252 231.506 240.252 231.506 245.708 222.371 245.708 181.316S246.872 145.393 247.046 112.703C247.221 80.013 248.035 78.679 246.872 53.02Z" opacity="1" fill="#252422" data-fill-palette-color="tertiary"></path><g transform="matrix(1,0,0,1,55.76832,26.230666666666668)"><svg width="135.9496352201258" viewBox="4.83 -38.11 27.1 38.82" height="194.73866666666666" data-palette-color="#ffffff"><path d="M5.05-2.03L5.05-2.03Q5.05-2.81 5.16-3.6 5.27-4.39 5.3-5.25L5.3-5.25 5.2-33.33Q5.05-33.67 4.94-34.28 4.83-34.89 4.83-35.42L4.83-35.42Q4.83-35.91 5-36.4 5.18-36.89 5.51-37.27 5.83-37.65 6.32-37.88 6.81-38.11 7.45-38.11L7.45-38.11Q8.52-38.11 9.59-38 10.67-37.89 11.84-37.89L11.84-37.89Q12.77-37.89 13.71-38 14.65-38.11 15.7-38.11L15.7-38.11Q19.14-38.11 22.12-37.16 25.1-36.21 27.27-34.36 29.44-32.52 30.69-29.83 31.93-27.15 31.93-23.71L31.93-23.71Q31.93-20.43 31.1-18.01 30.27-15.58 28.85-13.84 27.42-12.11 25.5-11 23.58-9.89 21.37-9.25 19.17-8.62 16.8-8.37 14.43-8.13 12.11-8.13L12.11-8.13Q11.87-8.13 11.69-8.12 11.52-8.11 11.38-8.11 11.23-8.11 11.07-8.12 10.91-8.13 10.69-8.13L10.69-8.13Q10.69-7.28 10.69-6.77 10.69-6.27 10.71-5.96 10.72-5.64 10.72-5.42 10.72-5.2 10.72-4.91L10.72-4.91Q10.72-4.13 10.88-3.34 11.04-2.56 11.04-1.68L11.04-1.68Q11.04-1.03 10.74-0.57 10.45-0.12 10.01 0.16 9.57 0.44 9.06 0.57 8.54 0.71 8.11 0.71L8.11 0.71Q7.52 0.71 6.96 0.52 6.4 0.34 5.98-0.01 5.57-0.37 5.31-0.87 5.05-1.37 5.05-2.03ZM10.72-13.43L10.72-13.43Q11.21-13.4 11.73-13.38 12.26-13.35 12.72-13.33 13.18-13.31 13.55-13.29 13.92-13.28 14.11-13.28L14.11-13.28Q16.82-13.28 18.79-13.72 20.75-14.16 22.09-14.92 23.44-15.67 24.27-16.69 25.1-17.7 25.54-18.88 25.98-20.07 26.12-21.35 26.27-22.63 26.27-23.9L26.27-23.9Q26.27-25.93 25.7-27.4 25.12-28.88 24.19-29.88 23.27-30.88 22.08-31.49 20.9-32.1 19.67-32.43 18.43-32.76 17.26-32.87 16.09-32.98 15.21-32.98L15.21-32.98Q14.09-32.98 12.95-32.95 11.82-32.91 10.52-32.89L10.52-32.89Q10.57-29.69 10.6-27.26 10.62-24.83 10.63-22.96 10.64-21.09 10.66-19.7 10.67-18.31 10.68-17.21 10.69-16.11 10.71-15.21 10.72-14.31 10.72-13.43Z" opacity="1" transform="matrix(1,0,0,1,0,0)" fill="#ffffff" class="wordmark-text-0" data-fill-palette-color="quaternary" id="text-0"></path></svg></g></svg></g></svg></g></svg></g><g></g></svg></g><defs></defs></svg><rect width="247.4862752201258" height="247.2" fill="none" stroke="none" visibility="hidden"></rect></g></svg></g></svg>